<svg width="900" height="900" viewBox="0 0 900 900" fill="none" xmlns="http://www.w3.org/2000/svg">
  <defs>
    <radialGradient id="mars" cx="38%" cy="32%" r="72%">
      <stop offset="0" stop-color="#FFD4A2"/>
      <stop offset=".22" stop-color="#FF9559"/>
      <stop offset=".55" stop-color="#9A412E"/>
      <stop offset="1" stop-color="#23111A"/>
    </radialGradient>
    <linearGradient id="limb" x1="80" y1="210" x2="760" y2="740">
      <stop stop-color="#8DB8FF" stop-opacity=".85"/>
      <stop offset=".48" stop-color="#8DB8FF" stop-opacity=".06"/>
      <stop offset="1" stop-color="#FF8A4B" stop-opacity=".35"/>
    </linearGradient>
    <filter id="glow" x="-50%" y="-50%" width="200%" height="200%">
      <feGaussianBlur stdDeviation="18" result="blur"/>
      <feMerge><feMergeNode in="blur"/><feMergeNode in="SourceGraphic"/></feMerge>
    </filter>
  </defs>
  <circle cx="450" cy="450" r="292" fill="url(#mars)"/>
  <path d="M188 346C308 291 447 303 566 353C623 377 668 410 707 450" stroke="#522219" stroke-width="22" stroke-linecap="round" opacity=".34"/>
  <path d="M236 560C343 507 481 511 638 590" stroke="#FFD0A2" stroke-width="16" stroke-linecap="round" opacity=".18"/>
  <path d="M292 248C350 278 396 284 462 266" stroke="#3A1A18" stroke-width="14" stroke-linecap="round" opacity=".28"/>
  <path d="M232 443C313 418 394 430 483 472" stroke="#F7B276" stroke-width="12" stroke-linecap="round" opacity=".18"/>
  <circle cx="341" cy="397" r="23" fill="#3D1B1D" opacity=".22"/>
  <circle cx="566" cy="485" r="36" fill="#2F171B" opacity=".22"/>
  <circle cx="450" cy="450" r="326" stroke="url(#limb)" stroke-width="9" filter="url(#glow)"/>
  <path d="M110 492C259 364 500 310 753 373" stroke="#8DB8FF" stroke-width="3" opacity=".48"/>
  <path d="M122 528C304 407 540 374 785 454" stroke="#8DB8FF" stroke-width="2" opacity=".32"/>
  <path d="M142 566C331 478 581 474 792 568" stroke="#8DB8FF" stroke-width="2" opacity=".24"/>
  <g fill="#FFE1A8" opacity=".8">
    <circle cx="157" cy="202" r="3"/><circle cx="714" cy="153" r="2"/><circle cx="782" cy="271" r="3"/><circle cx="208" cy="731" r="2"/><circle cx="694" cy="732" r="2"/><circle cx="112" cy="616" r="2"/>
  </g>
</svg>
